<svg width="162" height="164" viewBox="0 0 162 164" fill="none" xmlns="http://www.w3.org/2000/svg">
<path d="M38.3246 23.3337L127.378 28.0688L91.6053 149.014L12.8233 136.327L38.3246 23.3337Z" fill="#68542E" style="fill:#68542E;fill:color(display-p3 0.4083 0.3312 0.1815);fill-opacity:1;"/>
<path d="M14.3592 136.003C7.07331 135.409 5.87138 130.304 6.18114 127.825L119.853 20.9037V24.5093L122.498 23.3418L121.865 24.5093L124.659 23.9883L124.925 25.7179L126.123 24.964V27.4919L127.378 28.1776L91.3068 148.828C68.8173 145.173 21.9424 137.49 14.3592 136.003Z" fill="#E7C89D" style="fill:#E7C89D;fill:color(display-p3 0.9059 0.7843 0.6157);fill-opacity:1;"/>
<path d="M39.1737 19.5515L118.438 19.5515L82.6658 140.497L3.8838 127.81L39.1737 19.5515Z" fill="#A48A56" style="fill:#A48A56;fill:color(display-p3 0.6444 0.5404 0.3383);fill-opacity:1;"/>
<path d="M2.56058 128.2L9.14639 109.233L38.296 18.6556H117.668L118.387 20.8106L121.35 20.182V22.2472H124.223L125.031 25.3897L126.109 24.2225L127.006 27.0957L128.443 27.9936L111.383 85.368H125.749C130.706 85.368 132.005 88.9595 132.035 90.7553C133.082 107.456 135.267 141.916 135.626 146.154C135.985 150.392 131.825 152.29 129.7 152.709H80.8554C74.7499 152.709 74.4805 149.357 75.109 147.681C60.5335 145.556 28.5091 140.731 17.0163 138.433C5.52343 136.134 4.78573 131.18 5.85349 128.991L2.56058 128.2Z" stroke="white" style="stroke:white;stroke-opacity:1;" stroke-width="3"/>
<path d="M116.938 23.7931L118.921 22.8347L119.115 23.8841L119.402 25.4316L120.933 25.0711L122.642 24.6691L123.232 24.6691L123.398 24.7958L123.398 25.8203L123.398 28.7659L124.613 27.8822L124.613 28.4778L125.466 28.8857L125.592 28.9458L109.281 85.7762L108.73 87.6975L110.729 87.69C113.168 87.6808 116.368 87.6697 119.046 87.6665C120.385 87.6649 121.592 87.6653 122.507 87.6688C122.965 87.6705 123.347 87.673 123.635 87.6765C123.779 87.6782 123.897 87.6801 123.987 87.6821C124.032 87.6832 124.069 87.6842 124.097 87.6852L124.13 87.6864L124.139 87.6869L124.143 87.6871C124.496 87.7092 125.511 87.8334 126.566 88.0665C127.089 88.182 127.588 88.3171 128.002 88.4666C128.438 88.624 128.659 88.7554 128.733 88.8156C128.732 88.8153 128.732 88.8152 128.732 88.8152C128.731 88.8164 128.804 88.8961 128.913 89.1346C129.025 89.3802 129.129 89.6908 129.22 90.0281C129.38 90.6218 129.468 91.184 129.496 91.3832C130.02 106.261 132.066 134.937 132.732 144.275C132.846 145.868 132.919 146.898 132.938 147.201C132.943 147.278 132.908 147.532 132.627 147.977C132.363 148.396 131.967 148.848 131.509 149.271C131.055 149.692 130.587 150.041 130.217 150.268C130.07 150.359 129.957 150.418 129.881 150.453L80.5939 150.453L80.5 150.453L80.4068 150.465C79.0876 150.631 78.3457 150.474 77.9468 150.29C77.5903 150.125 77.4098 149.897 77.2934 149.614C77.1597 149.29 77.1079 148.874 77.1129 148.408C77.1154 148.182 77.1305 147.966 77.148 147.761C77.151 147.726 77.1545 147.687 77.1582 147.646C77.1724 147.489 77.19 147.293 77.1941 147.149L77.2321 145.81L75.9052 145.622C66.2948 144.26 52.1165 142.053 39.5772 139.972C26.9833 137.882 16.1849 135.943 13.2322 135.117C10.5272 134.36 9.11282 133.012 8.37774 131.749C7.61595 130.439 7.52287 129.115 7.63408 128.384L7.85939 126.903L6.37914 126.676L5.85727 126.595L40.2624 21.0515L116.938 21.0515L116.938 21.4017L116.938 23.7931Z" stroke="black" style="stroke:black;stroke-opacity:1;" stroke-width="3"/>
<path d="M12.9514 113.979C18.3803 112.569 22.814 109.925 29.0011 111.482C39.2685 114.065 17.273 121.256 14.9814 122.849C13.5587 123.837 18.9753 122.867 20.8176 122.382C30.0486 119.95 38.6182 116.091 45.3045 110.758C49.6545 107.289 53.6998 102.083 43.9089 102.216C38.14 102.294 31.9075 103.943 26.7173 105.693C24.4456 106.46 18.0713 108.713 20.5639 108.844C28.0319 109.237 36.8032 106.765 44.0357 105.67C47.6771 105.119 52.3906 103.805 56.2157 103.896C57.6922 103.931 55.1667 105.674 54.7567 105.81C52.5647 106.54 53.6093 105.163 55.962 105.95C59.7 107.201 63.3491 108.172 67.4759 108.448C67.9602 108.48 74.3737 108.577 70.4892 108.728C58.4724 109.193 44.9824 109.156 33.5051 106.184C27.1724 104.544 27.5229 101.661 29.4768 97.4543C32.8412 90.2107 38.6926 82.7062 47.5248 78.3618C47.8428 78.2054 52.866 75.9641 52.917 77.6149C53.0219 81.0126 51.8867 84.5548 50.6649 87.7914C48.7102 92.9695 46.464 98.6073 42.8939 103.336C42.0883 104.403 42.9626 103.665 43.9723 103.149C45.4182 102.41 46.8329 101.64 48.286 100.909C48.8308 100.634 50.1488 99.6175 49.9037 100.068C46.7868 105.802 27.5316 94.5769 37.1528 88.3515C41.2961 85.6706 57.3209 84.5323 60.6563 88.7717C62.0932 90.5979 57.9135 93.631 57.6114 92.7862C57.0253 91.1474 71.8003 88.1765 73.9782 89.3785C74.1669 89.4827 73.9042 89.5203 74.3271 89.1918C75.7113 88.1166 77.2627 87.1813 79.0532 86.4843C79.5626 86.286 84.5871 84.552 84.7943 85.9241C84.9961 87.2606 83.525 88.813 82.2251 89.6119C74.2035 94.5417 60.7376 95.9551 50.8235 96.7541C50.1471 96.8086 38.693 98.0172 39.4365 95.1903C40.6434 90.6017 54.6466 87.269 59.0704 86.1575C69.1225 83.6321 82.0639 81.2552 92.8191 82.6798C96.5483 83.1738 89.5895 87.7613 89.2984 88.0014C81.4736 94.4542 72.8898 100.315 63.8282 105.81C62.1325 106.838 57.3503 109.44 59.5462 109.498C65.8144 109.663 69.798 109.345 75.7545 111.038C76.9083 111.366 81.126 112.152 81.0198 113.559C80.8195 116.212 64.8482 114.232 63.9551 114.119C59.023 113.497 53.4369 112.403 48.7301 111.085C46.8088 110.547 42.7506 109.464 41.6885 107.771C40.2806 105.526 47.6312 104.408 49.0473 104.2C57.2811 102.988 66.6488 103.12 74.9298 104.386C79.7909 105.13 82.0348 105.474 82.0348 108.938C82.0348 112.532 83.4479 112.213 87.9345 113.466C92.2871 114.682 94.1341 115.569 92.3116 119.324C90.7657 122.51 86.47 121.9 82.3837 121.705C75.0833 121.356 69.0259 118.555 61.9251 117.854C54.0245 117.074 45.9234 118.951 38.2312 119.978C34.7662 120.44 31.3412 120.935 27.7957 120.818C22.2572 120.636 21.975 118.471 23.2283 114.773C24.0384 112.382 26.9754 106.902 28.3032 104.596C29.0464 103.306 30.7657 99.5842 31.1579 100.955C32.3327 105.061 32.9523 109.017 35.7889 112.812C38.2674 116.128 42.8245 116.303 47.5248 116.22C52.7998 116.127 58.5316 115.912 63.7013 115.053C69.1058 114.155 74.8024 113.912 80.322 113.559" stroke="#8B7750" style="stroke:#8B7750;stroke:color(display-p3 0.5458 0.4670 0.3139);stroke-opacity:1;" stroke-width="2.31325" stroke-linecap="round"/>
<circle cx="7.17892" cy="7.17892" r="7.17892" transform="matrix(1 0 -0.257663 0.966235 19.2036 95.6611)" fill="#216F24" style="fill:#216F24;fill:color(display-p3 0.1284 0.4361 0.1407);fill-opacity:1;"/>
<path d="M39.2726 32.5432L48.9319 32.7579L45.142 44.9395L43.9608 44.9133L43.3795 36.4739L40.5983 36.4121L40.314 37.326L41.869 37.3606L36.664 44.7511L35.4827 44.7249L39.2726 32.5432ZM42.5198 37.979L42.7807 42.27L39.5061 42.1972L42.445 37.9773L42.5198 37.979ZM43.9113 48.8954L34.252 48.6807L35.1984 45.6389L38.6075 45.7146L38.8919 44.8007L37.6957 44.7741L38.9389 43.0042L42.8265 43.0906L42.9291 44.8904L41.7777 44.8648L41.4934 45.7788L44.8577 45.8535L43.9113 48.8954ZM43.5535 48.8874L48.5741 32.7499L57.0073 32.9373L51.9867 49.0748L43.5535 48.8874ZM45.2774 45.8629L52.1406 46.0154L53.3638 43.0516L52.4141 42.9586L51.453 45.0798L47.8794 45.0004L50.1986 37.5457L51.8284 37.5819L52.1128 36.6679L48.1653 36.5802L47.881 37.4942L49.1071 37.5214L46.7879 44.9761L45.5618 44.9489L45.2774 45.8629ZM51.6284 49.0669L56.649 32.9293L70.1212 33.2287L65.1006 49.3663L51.6284 49.0669ZM66.6469 37.9112L67.9179 37.9395L68.2022 37.0255L65.9594 36.9756L60.0196 44.1629L59.9598 44.1616L58.4383 36.8085L56.2103 36.759L55.926 37.673L57.197 37.7012L54.8777 45.1559L53.6516 45.1286L53.3673 46.0426L56.8063 46.1191L57.0907 45.2051L55.9244 45.1792L57.7771 39.224L57.8369 39.2253L59.1809 45.6973L59.764 45.7103L65.0008 39.4276L65.0606 39.429L63.2212 45.3413L62.0848 45.3161L61.8005 46.23L65.2545 46.3068L65.5388 45.3928L64.3277 45.3659L66.6469 37.9112ZM69.7616 33.2207L79.4209 33.4354L75.6311 45.6171L74.4498 45.5908L73.8685 37.1514L71.0874 37.0896L70.803 38.0036L72.3581 38.0381L67.153 45.4287L65.9718 45.4024L69.7616 33.2207ZM73.0088 38.6565L73.2698 42.9475L69.9952 42.8747L72.934 38.6549L73.0088 38.6565ZM74.4004 49.5729L64.7411 49.3583L65.6874 46.3164L69.0966 46.3922L69.3809 45.4782L68.1847 45.4516L69.4279 43.6818L73.3156 43.7682L73.4181 45.5679L72.2668 45.5423L71.9824 46.4563L75.3467 46.5311L74.4004 49.5729ZM74.0425 49.565L79.0631 33.4274L90.3821 33.679L85.3616 49.8165L74.0425 49.565ZM87.0424 38.3644L88.2536 38.3914L88.5379 37.4774L84.8148 37.3946L84.5304 38.3086L85.9958 38.3412L84.0542 44.582L83.9944 44.5807L80.6879 37.3029L78.5946 37.2564L78.3102 38.1704L79.5961 38.199L77.2769 45.6537L76.1554 45.6287L75.8711 46.5427L79.5793 46.6251L79.8637 45.7111L78.3236 45.6769L80.314 39.279L80.3738 39.2804L83.7361 46.7175L84.4389 46.7331L87.0424 38.3644ZM90.0292 33.6711L99.6885 33.8858L95.8987 46.0675L94.7174 46.0412L94.1361 37.6018L91.355 37.54L91.0706 38.454L92.6257 38.4885L87.4206 45.8791L86.2394 45.8528L90.0292 33.6711ZM93.2764 39.1069L93.5374 43.3979L90.2628 43.3251L93.2017 39.1053L93.2764 39.1069ZM94.668 50.0233L85.0087 49.8087L85.955 46.7668L89.3642 46.8426L89.6485 45.9286L88.4523 45.902L89.6955 44.1322L93.5832 44.2186L93.6857 46.0183L92.5344 45.9927L92.25 46.9067L95.6143 46.9815L94.668 50.0233ZM94.3102 50.0154L99.3307 33.8778L109.289 34.0991L104.269 50.2367L94.3102 50.0154ZM104.226 46.4538L105.035 44.6744L104.135 44.5681L103.424 45.9327C102.76 46.196 102.005 46.3182 101.157 46.2994C100.001 46.2737 99.1921 45.9058 98.7304 45.1957C98.2817 44.4763 98.2366 43.5407 98.595 42.3887C98.9445 41.2652 99.5558 40.3489 100.429 39.6397C101.312 38.9308 102.287 38.5882 103.353 38.6119C103.902 38.6241 104.341 38.6961 104.671 38.8281C105.004 38.9505 105.299 39.1153 105.556 39.3223L105.403 40.685L106.372 40.6202L106.658 38.8291C106.36 38.4966 105.968 38.2242 105.482 38.0121C105.006 37.8002 104.364 37.6853 103.557 37.6673C102.61 37.6463 101.723 37.8519 100.896 38.284C100.069 38.7162 99.3503 39.2994 98.7405 40.0336C98.1336 40.7583 97.6969 41.5491 97.4303 42.4059C97.0097 43.7579 97.0973 44.8958 97.6932 45.8198C98.2919 46.7342 99.2991 47.2071 100.715 47.2386C102.1 47.2694 103.271 47.0078 104.226 46.4538Z" fill="#DACAB5" style="fill:#DACAB5;fill:color(display-p3 0.8556 0.7938 0.7082);fill-opacity:1;"/>
<path d="M31.6551 69.4866L36.6757 53.3491L41.7894 53.4627L36.7688 69.6002L31.6551 69.4866ZM33.379 66.462L36.9227 66.5408L37.2071 65.6268L35.9959 65.5999L38.3152 58.1452L39.5263 58.1721L39.8107 57.2581L36.2669 57.1794L35.9826 58.0933L37.2087 58.1206L34.8894 65.5753L33.6633 65.548L33.379 66.462ZM36.4154 69.5924L41.4359 53.4548L50.3177 53.6522L45.2971 69.7897L36.4154 69.5924ZM42.5801 66.6665L45.9444 66.7412L46.1977 65.9272L45.0463 65.9016L46.0593 62.6456C46.323 61.7982 46.2947 61.1793 45.9746 60.7887C45.6545 60.3981 45.1704 60.1956 44.5225 60.1812C43.4459 60.1573 42.538 60.5589 41.7989 61.3861L42.1499 60.2579L39.907 60.2081L39.6538 61.0221L40.85 61.0487L39.3794 65.7757L38.2131 65.7498L37.9598 66.5638L41.3391 66.6389L41.5923 65.8249L40.426 65.799L41.3502 62.8285C41.5212 62.3434 41.8439 61.9192 42.3182 61.5559C42.8055 61.1832 43.3482 61.0036 43.9463 61.0168C44.3949 61.0268 44.7193 61.1778 44.9195 61.4699C45.1227 61.7524 45.1177 62.2364 44.9044 62.9219L43.9847 65.878L42.8334 65.8525L42.5801 66.6665ZM44.9429 69.7819L49.9635 53.6443L58.4864 53.8337L53.4659 69.9713L44.9429 69.7819ZM51.8404 66.8723L54.0384 66.9211L54.2916 66.1071L53.1403 66.0815L55.9438 57.0702L53.2823 57.011L53.029 57.8251L54.6439 57.8609L53.4976 61.5454C53.289 60.7643 52.6663 60.3622 51.6296 60.3392C50.543 60.315 49.6565 60.6644 48.9698 61.3873C48.2832 62.1102 47.8081 62.8953 47.5445 63.7427C47.2364 64.7328 47.2542 65.5145 47.5978 66.0878C47.9543 66.6517 48.5612 66.9432 49.4185 66.9622C50.0266 66.9757 50.5644 66.8439 51.0321 66.5667C51.4998 66.2895 51.9025 65.9629 52.2403 65.587L51.8404 66.8723ZM53.0311 63.045L52.7157 64.0589C52.5476 64.5345 52.1917 65.0011 51.6478 65.4588C51.1169 65.9071 50.5523 66.1246 49.9542 66.1114C49.3761 66.0985 48.9548 65.8878 48.6905 65.4793C48.4361 65.071 48.4303 64.4765 48.6732 63.6959C48.8805 63.0294 49.2336 62.4429 49.7325 61.9363C50.2413 61.4299 50.8646 61.185 51.6022 61.2014C52.1306 61.2131 52.5373 61.3899 52.8224 61.7318C53.1075 62.0736 53.177 62.5114 53.0311 63.045ZM53.1055 69.9633L58.126 53.8257L66.0957 54.0028L61.0751 70.1404L53.1055 69.9633ZM60.0657 60.5123C58.9891 60.4883 58.068 60.8034 57.3025 61.4574C56.5399 62.102 56.0149 62.886 55.7276 63.8095C55.4284 64.7711 55.4682 65.5628 55.8468 66.1848C56.2354 66.807 56.9331 67.1292 57.9399 67.1516C58.9666 67.1744 59.8768 66.8783 60.6704 66.2632C61.464 65.6481 62.0104 64.8598 62.3095 63.8982C62.5909 62.9938 62.5582 62.2117 62.2113 61.5521C61.8675 60.883 61.1522 60.5364 60.0657 60.5123ZM58.2364 66.2954C57.5286 66.2797 57.0644 66.0297 56.8437 65.5455C56.6229 65.0612 56.6207 64.4716 56.8369 63.7766C57.0561 63.0721 57.4227 62.4907 57.9366 62.0323C58.4606 61.5742 59.0714 61.353 59.7692 61.3685C60.467 61.384 60.9342 61.6244 61.1708 62.0898C61.4204 62.5459 61.4326 63.1358 61.2075 63.8594C60.9853 64.5734 60.6108 65.1642 60.0839 65.6319C59.56 66.0899 58.9441 66.3111 58.2364 66.2954ZM60.7131 70.1323L65.7337 53.9948L74.6155 54.1922L69.5949 70.3297L60.7131 70.1323ZM66.8779 67.2064L70.2422 67.2812L70.4955 66.4672L69.3441 66.4416L70.3571 63.1855C70.6207 62.3382 70.5925 61.7192 70.2724 61.3286C69.9522 60.9381 69.4682 60.7356 68.8203 60.7212C67.7437 60.6973 66.8358 61.0989 66.0967 61.9261L66.4477 60.7979L64.2048 60.748L63.9516 61.5621L65.1478 61.5886L63.6771 66.3157L62.5108 66.2897L62.2576 67.1038L65.6368 67.1788L65.8901 66.3648L64.7238 66.3389L65.6479 63.3685C65.8189 62.8834 66.1416 62.4591 66.616 62.0958C67.1033 61.7232 67.646 61.5435 68.2441 61.5568C68.6927 61.5668 69.0171 61.7178 69.2173 62.0098C69.4205 62.2923 69.4155 62.7763 69.2022 63.4618L68.2825 66.418L67.1312 66.3924L66.8779 67.2064ZM69.2407 70.3218L74.2613 54.1843L81.588 54.3471L76.5674 70.4846L69.2407 70.3218ZM77.4096 65.5999L76.5852 65.3946C76.3641 65.7827 76.0669 66.0925 75.6938 66.3239C75.3207 66.5552 74.87 66.665 74.3417 66.6533C72.996 66.6234 72.5243 65.8652 72.9265 64.3786L77.6066 64.4826C77.7464 64.2269 77.8548 63.9753 77.9318 63.7277C78.1559 62.9754 78.1145 62.3178 77.8079 61.7549C77.5012 61.1921 76.8893 60.9005 75.9722 60.8801C75.0352 60.8593 74.1933 61.1617 73.4466 61.7874C72.6999 62.4131 72.1725 63.2211 71.8645 64.2112C71.5446 65.2394 71.5863 66.0408 71.9897 66.6154C72.3931 67.19 73.0634 67.4877 74.0004 67.5085C74.8178 67.5267 75.525 67.3507 76.1219 66.9805C76.7218 66.6007 77.1511 66.1405 77.4096 65.5999ZM76.8209 63.7174L73.1725 63.6363C73.4082 63.1047 73.7312 62.647 74.1418 62.263C74.5523 61.8791 75.0666 61.694 75.6846 61.7078C76.3325 61.7222 76.7309 61.9419 76.8797 62.367C77.0384 62.7924 77.0189 63.2425 76.8209 63.7174ZM76.2059 70.4766L81.2264 54.3391L88.0597 54.4909L83.0392 70.6284L76.2059 70.4766ZM83.8409 65.7284C83.9979 65.2238 83.9739 64.8494 83.7688 64.6052C83.5667 64.3514 83.2761 64.1724 82.897 64.0681C82.518 63.9638 82.133 63.8786 81.742 63.8124C81.3541 63.7367 81.0413 63.6291 80.8036 63.4896C80.5689 63.3405 80.5034 63.0994 80.6071 62.7662C80.7078 62.4425 80.9164 62.2075 81.233 62.0611C81.5495 61.9148 81.9171 61.8463 82.3358 61.8556C82.8242 61.8664 83.2452 61.9812 83.5987 62.2L83.4433 63.2319L84.3416 63.1512L84.6392 61.6623C84.4105 61.4942 84.1095 61.3485 83.7363 61.2252C83.3732 61.1021 82.9623 61.0355 82.5037 61.0253C81.8957 61.0118 81.2895 61.1373 80.6853 61.4019C80.081 61.6665 79.6737 62.1367 79.4634 62.8127C79.3094 63.3078 79.3349 63.6774 79.54 63.9216C79.748 64.1563 80.0466 64.3259 80.4356 64.4304C80.8247 64.535 81.2132 64.6251 81.6011 64.7008C81.9991 64.7768 82.3154 64.8892 82.5501 65.0382C82.7848 65.1873 82.8473 65.4379 82.7377 65.7902C82.6251 66.1519 82.3563 66.4192 81.9312 66.5919C81.519 66.7553 81.0787 66.8318 80.6102 66.8214C80.0819 66.8096 79.621 66.6939 79.2276 66.4743L79.5346 65.6327L78.7239 65.5284L78.0659 66.9661C78.2987 67.1535 78.6251 67.3141 79.0451 67.448C79.4781 67.5727 79.9288 67.6402 80.3973 67.6507C81.1948 67.6684 81.9175 67.5071 82.5654 67.1668C83.2232 66.8267 83.6484 66.3472 83.8409 65.7284ZM82.6746 70.6203L87.6951 54.4828L92.1958 54.5828L87.1753 70.7204L82.6746 70.6203ZM88.2328 58.3198L87.8285 59.6193L88.9649 59.6446L89.3692 58.345L88.2328 58.3198ZM84.2788 67.5931L87.6581 67.6682L87.9113 66.8542L86.7451 66.8283L88.4689 61.2872L86.2261 61.2374L85.9728 62.0514L87.169 62.078L85.6984 66.805L84.5321 66.7791L84.2788 67.5931ZM86.8216 70.7125L91.8421 54.575L99.3632 54.7421L94.3426 70.8796L86.8216 70.7125ZM90.9546 61.8314L90.2578 63.297L91.0939 63.4163L91.6902 62.3223C92.1124 62.1591 92.5677 62.0829 93.0561 62.0938C93.6542 62.1071 94.0085 62.2588 94.119 62.5488C94.2395 62.8391 94.2286 63.2127 94.0865 63.6697L93.9087 64.2409C93.7352 64.2179 93.5453 64.1993 93.3389 64.1851C93.1425 64.1712 92.9446 64.162 92.7453 64.1576C91.9977 64.141 91.2499 64.2538 90.5021 64.496C89.7671 64.7289 89.2753 65.2452 89.0265 66.0449C88.8162 66.7209 88.8953 67.1924 89.2639 67.4594C89.6425 67.7267 90.0511 67.8652 90.4897 67.8749C91.028 67.8869 91.528 67.7638 91.9897 67.5056C92.4614 67.2477 92.8552 66.9497 93.1712 66.6116L93.1623 66.6401C92.9157 67.4974 93.1861 67.9349 93.9736 67.9523C94.2826 67.9592 94.5939 67.8942 94.9075 67.7574L95.0969 67.1001C94.9496 67.1544 94.7912 67.1796 94.6217 67.1759C94.2429 67.1674 94.1246 66.9347 94.2668 66.4778L95.2087 63.4502C95.65 62.0316 95.0782 61.3047 93.4932 61.2695C93.0546 61.2597 92.6261 61.2981 92.2077 61.3847C91.7894 61.4713 91.3717 61.6202 90.9546 61.8314ZM93.5489 65.3977C93.3461 65.9204 92.993 66.3296 92.4895 66.6252C91.996 66.921 91.5199 67.0638 91.0614 67.0536C90.7723 67.0472 90.5169 66.9648 90.2951 66.8065C90.0734 66.6482 90.0262 66.3643 90.1535 65.955C90.3076 65.4599 90.6062 65.1454 91.0493 65.0114C91.5054 64.8682 91.9827 64.8021 92.4811 64.8132C92.7004 64.818 92.9117 64.8323 93.1152 64.856C93.3186 64.8797 93.5135 64.8984 93.6999 64.9121L93.5489 65.3977Z" fill="#DACAB5" style="fill:#DACAB5;fill:color(display-p3 0.8549 0.7922 0.7098);fill-opacity:1;"/>
<path d="M83.1278 116.383C85.2189 113.206 83.8914 110.031 80.1218 109.194L74.1198 107.86L71.0198 112.219C68.6718 115.521 70.0555 118.897 74.0777 119.679L80.1782 120.865L83.1278 116.383Z" fill="#934141" style="fill:#934141;fill:color(display-p3 0.5778 0.2536 0.2536);fill-opacity:1;"/>
<path d="M66.046 129.789C70.0701 130.683 75.2748 128.574 77.4423 125.171L80.1665 120.894L61.1887 116.677C57.3139 115.816 52.308 117.74 50.0077 120.975L46.7841 125.508L66.046 129.789Z" fill="#934141" style="fill:#934141;fill:color(display-p3 0.5778 0.2536 0.2536);fill-opacity:1;"/>
<path d="M80.3311 91.5839C80.341 91.3114 80.4604 91.0545 80.6624 90.8713L82.8159 88.9182L81.9517 146.543C81.9435 147.095 81.493 147.539 80.9403 147.539H79.3501C78.777 147.539 78.3184 147.064 78.3392 146.491L80.3311 91.5839Z" fill="#6C7D64" style="fill:#6C7D64;fill:color(display-p3 0.4248 0.4917 0.3933);fill-opacity:1;"/>
<path d="M128.873 91.5839C128.863 91.3114 128.744 91.0545 128.542 90.8713L126.388 88.9182L127.252 146.543C127.261 147.095 127.711 147.539 128.264 147.539H129.854C130.427 147.539 130.886 147.064 130.865 146.491L128.873 91.5839Z" fill="#6C7D64" style="fill:#6C7D64;fill:color(display-p3 0.4248 0.4917 0.3933);fill-opacity:1;"/>
<path d="M79.7928 131.35C79.8821 130.303 80.7579 129.499 81.8086 129.499H127.393C128.443 129.499 129.319 130.303 129.409 131.35L130.715 146.633C130.816 147.814 129.885 148.828 128.7 148.828H80.5043C79.3191 148.828 78.3877 147.814 78.4885 146.633L79.7928 131.35Z" fill="#A5ABA2" style="fill:#A5ABA2;fill:color(display-p3 0.6454 0.6694 0.6341);fill-opacity:1;"/>
<path d="M81.7129 91.1386C81.785 89.5166 83.121 88.2386 84.7447 88.2386H124.46C126.084 88.2386 127.42 89.5166 127.492 91.1386L129.245 130.59C129.322 132.317 127.942 133.76 126.213 133.76H82.9911C81.2622 133.76 79.8826 132.317 79.9594 130.59L81.7129 91.1386Z" fill="#E0F5E8" style="fill:#E0F5E8;fill:color(display-p3 0.8783 0.9611 0.9115);fill-opacity:1;"/>
<path d="M96.6636 107.604V109.637H99.5324V110.947H96.6636V113.549H100.599V114.918H95.1225V106.235H100.664V107.604H96.6636ZM101.619 114.438L102.188 113.057C102.796 113.484 103.395 113.697 103.984 113.697C104.889 113.697 105.341 113.381 105.341 112.749C105.341 112.452 105.234 112.17 105.021 111.901C104.808 111.632 104.367 111.332 103.699 111C103.035 110.664 102.587 110.39 102.354 110.176C102.125 109.959 101.947 109.702 101.82 109.406C101.698 109.109 101.637 108.781 101.637 108.422C101.637 107.75 101.882 107.193 102.372 106.75C102.865 106.308 103.498 106.087 104.268 106.087C105.272 106.087 106.009 106.274 106.479 106.65L106.011 107.977C105.469 107.59 104.898 107.396 104.298 107.396C103.942 107.396 103.666 107.491 103.468 107.681C103.274 107.867 103.178 108.11 103.178 108.41C103.178 108.908 103.729 109.426 104.831 109.963C105.412 110.247 105.831 110.51 106.088 110.751C106.345 110.988 106.54 111.267 106.675 111.587C106.809 111.903 106.876 112.257 106.876 112.648C106.876 113.351 106.598 113.93 106.04 114.385C105.487 114.839 104.744 115.066 103.812 115.066C103.002 115.066 102.271 114.857 101.619 114.438ZM114.196 106.697L113.562 107.971C113.218 107.628 112.665 107.456 111.902 107.456C111.179 107.456 110.587 107.76 110.124 108.369C109.662 108.973 109.431 109.74 109.431 110.668C109.431 111.597 109.644 112.334 110.071 112.879C110.502 113.424 111.075 113.697 111.79 113.697C112.608 113.697 113.248 113.405 113.71 112.82L114.427 114.065C113.799 114.732 112.878 115.066 111.665 115.066C110.452 115.066 109.51 114.667 108.838 113.869C108.166 113.071 107.83 111.982 107.83 110.603C107.83 109.319 108.202 108.246 108.945 107.385C109.692 106.519 110.646 106.087 111.808 106.087C112.803 106.087 113.6 106.29 114.196 106.697Z" fill="#3E523E" style="fill:#3E523E;fill:color(display-p3 0.2442 0.3222 0.2426);fill-opacity:1;"/>
</svg>
