<svg width="228" height="239" viewBox="0 0 228 239" fill="none" xmlns="http://www.w3.org/2000/svg">
<path d="M92.8912 175.902L94.9674 151.61L134.415 136.038L150.195 157.631L92.8912 175.902Z" fill="white" stroke="white" stroke-width="3"/>
<path d="M89.253 101.984L40.975 146.115L38.664 142.764L20.0905 154.97L38.664 191.586L49.2775 185.749L54.5842 177.258L104.255 156.99L89.253 101.984Z" fill="#D9D9D9"/>
<path d="M81.6486 216.528L60.9523 175.136L68.3817 171.421L90.67 216.528H81.6486Z" fill="#434343"/>
<path d="M115.612 203.792L90.6194 216.257L68.6042 171.594L93.3234 158.685L115.612 203.792Z" fill="#9C9C9C"/>
<path d="M125.694 86.5132L88.5472 102.433L103.406 156.562L153.82 134.804L125.694 86.5132Z" fill="#959595" stroke="white" stroke-width="2"/>
<mask id="mask0_165_59" style="mask-type:alpha" maskUnits="userSpaceOnUse" x="50" y="49" width="133" height="135">
<path d="M181.527 176.422L143.367 103.114C142.521 101.488 142.733 99.5139 143.906 98.1058L167.769 69.4439C171.056 65.4959 166.298 59.9801 161.911 62.6527L126.443 84.2595C125.083 85.0875 123.39 85.1444 121.978 84.4093L57.5956 50.8868C53.1894 48.5926 48.823 54.0174 52.0057 57.8316L96.3027 110.918C97.6249 112.502 97.7139 114.779 96.5196 116.462L58.5686 169.937C55.6036 174.115 60.7398 179.243 64.9129 176.271L118.104 138.394C119.801 137.185 122.103 137.285 123.689 138.637L174.546 181.981C178.346 185.22 183.833 180.852 181.527 176.422Z" fill="#D9D9D9" stroke="white" stroke-width="1.51534"/>
</mask>
<g mask="url(#mask0_165_59)">
<path d="M181.527 176.422L143.367 103.114C142.521 101.488 142.733 99.5139 143.906 98.1058L167.769 69.4439C171.056 65.4959 166.298 59.9801 161.911 62.6527L126.443 84.2595C125.083 85.0875 123.39 85.1444 121.978 84.4093L57.5956 50.8868C53.1894 48.5926 48.823 54.0174 52.0057 57.8316L96.3027 110.918C97.6248 112.502 97.7139 114.779 96.5195 116.462L58.5686 169.937C55.6036 174.115 60.7397 179.243 64.9128 176.271L118.104 138.394C119.801 137.185 122.103 137.285 123.689 138.637L174.546 181.981C178.346 185.22 183.833 180.852 181.527 176.422Z" fill="#989898" stroke="white" stroke-width="1.51534"/>
<path d="M135.031 90.3714L125.04 85.6286L189.964 43.3843L135.031 90.3714Z" fill="#F6F6F6"/>
<path d="M114.518 113.784L98.1579 113.043L36.1017 196.38L114.518 113.784Z" fill="#F6F6F6"/>
<path d="M114.694 113.828L37.1008 41.0434L91.0808 115.416L114.694 113.828Z" fill="#F6F6F6"/>
<path d="M130.783 131.193L121.116 136.778L209.972 217.424L130.783 131.193Z" fill="#F6F6F6"/>
</g>
<path d="M102.074 164.482C102.084 164.21 102.203 163.953 102.405 163.77L104.556 161.819L103.693 219.378C103.684 219.93 103.235 220.373 102.682 220.373H101.094C100.522 220.373 100.064 219.898 100.084 219.326L102.074 164.482Z" fill="#6C7D64"/>
<path d="M150.56 164.482C150.55 164.21 150.431 163.953 150.229 163.77L148.078 161.819L148.942 219.378C148.95 219.93 149.4 220.373 149.952 220.373H151.54C152.113 220.373 152.571 219.898 152.55 219.326L150.56 164.482Z" fill="#6C7D64"/>
<path d="M101.536 204.203C101.625 203.157 102.5 202.354 103.55 202.354H149.082C150.131 202.354 151.006 203.157 151.095 204.203L152.4 219.468C152.501 220.647 151.571 221.661 150.387 221.661H102.247C101.063 221.661 100.133 220.648 100.233 219.468L101.536 204.203Z" fill="#A5ABA2"/>
<path d="M103.454 164.037C103.526 162.417 104.861 161.141 106.482 161.141H146.152C147.774 161.141 149.108 162.417 149.18 164.037L150.932 203.444C151.008 205.169 149.63 206.609 147.903 206.609H104.731C103.004 206.609 101.626 205.169 101.703 203.444L103.454 164.037Z" fill="#E0F5E8"/>
<path d="M129.222 189.362L126.136 184.586C125.825 184.581 125.391 184.563 124.833 184.531V189.362H122.702V177.797C122.817 177.797 123.262 177.779 124.036 177.742C124.809 177.7 125.433 177.679 125.907 177.679C128.843 177.679 130.311 178.816 130.311 181.089C130.311 181.773 130.109 182.397 129.704 182.96C129.298 183.523 128.788 183.92 128.172 184.152L131.59 189.362H129.222ZM124.833 179.581V182.794C125.212 182.826 125.501 182.842 125.701 182.842C126.559 182.842 127.185 182.721 127.58 182.479C127.98 182.236 128.18 181.765 128.18 181.066C128.18 180.497 127.967 180.1 127.541 179.874C127.114 179.647 126.443 179.534 125.528 179.534C125.307 179.534 125.075 179.55 124.833 179.581Z" fill="#3E523E"/>
<path d="M104.325 162.184C105.205 161.702 106.258 161.531 106.943 161.531C118.099 161.6 141.378 161.698 144.959 161.53C147.81 161.396 149.409 163.288 149.914 164.342C150.236 173.038 150.731 186.121 151.18 197.36C151.631 208.646 152.038 218.155 152.177 219.409C152.277 220.305 151.985 220.714 151.71 220.936C151.374 221.207 150.9 221.317 150.573 221.318C135.742 221.29 105.342 221.25 102.573 221.318C101.479 221.345 101.137 220.971 101 220.729C100.808 220.39 100.796 219.902 100.885 219.535L100.914 219.418V219.298V212.086V210.422L99.4447 211.202L90.6907 215.852H81.4158C78.5749 209.527 74.3696 200.361 70.6536 192.679C68.738 188.719 66.9465 185.141 65.5366 182.549C64.8335 181.256 64.2141 180.187 63.7148 179.433C63.4677 179.06 63.2306 178.734 63.0124 178.491C62.9047 178.371 62.7763 178.243 62.631 178.137C62.5131 178.051 62.2417 177.872 61.8722 177.872C61.4585 177.872 60.8372 177.603 60.1227 177.082C59.4469 176.589 58.8479 175.99 58.5154 175.602L58.0073 175.009L57.309 175.359L54.6897 176.668L54.3915 176.817L54.2424 177.115L49.8925 185.815L38.7313 191.903L20.5099 155.282L38.2931 143.866L40.3452 145.21L40.9874 145.63L41.5597 145.119C49.0469 138.423 60.3316 128.354 69.8526 119.913C74.6134 115.691 78.9317 111.878 82.1133 109.097C83.7046 107.705 85.0088 106.575 85.941 105.781C86.4078 105.383 86.7769 105.074 87.0403 104.86C87.1727 104.752 87.2722 104.674 87.341 104.622C87.3588 104.609 87.3726 104.598 87.3829 104.591C87.8269 104.371 88.1176 104.009 88.264 103.597C88.4058 103.198 88.4003 102.793 88.3571 102.469C88.2711 101.825 87.993 101.195 87.7763 100.809L87.7309 100.729L87.6715 100.658L53.5523 59.9077L53.5205 59.8697L53.4851 59.835C52.6127 58.9812 51.4964 57.5284 50.9604 55.984C50.4361 54.4731 50.5024 53.0348 51.6843 51.8529C54.3641 49.1731 57.0781 50.0151 58.0118 50.6475L58.0599 50.6802L58.1115 50.707C77.5948 60.8302 117.312 81.4528 120.215 82.9042C123.471 84.532 126.488 83.6122 127.694 82.8631C136.206 77.7637 154.368 66.8251 158.824 63.9191C161.508 62.1683 163.459 61.6284 164.931 61.7282C166.367 61.8256 167.53 62.5453 168.629 63.7541C169.347 64.5434 169.517 65.4905 169.402 66.4384C169.286 67.3815 168.891 68.2496 168.565 68.7538C161.676 77.0124 147.429 94.0783 145.219 96.6727C142.798 99.5145 142.97 102.136 143.656 103.348L181.107 174.757C181.458 175.795 181.835 177.409 181.857 178.93C181.881 180.552 181.504 181.697 180.743 182.214C179.903 182.785 178.551 182.823 176.956 182.442C175.457 182.084 173.992 181.414 173.085 180.895L131.499 145.222L131.031 144.821L130.462 145.059L101.848 157.045L101.839 157.049L101.83 157.053L94.6242 160.24L93.6736 160.66L94.1304 161.594L100.435 174.481L102.333 174.053C102.356 172.141 102.472 167.563 102.745 164.5C102.847 163.357 103.481 162.647 104.325 162.184Z" stroke="black" stroke-width="2"/>
<path d="M38.1035 140.074L38.8994 140.527L40.9658 141.706L84.6486 102.708C84.6837 102.077 84.4847 100.47 82.4291 98.4968C80.9441 97.0712 75.0132 90.2168 68.301 82.3533C61.5472 74.441 53.9037 65.3891 48.9262 59.468L48.878 59.4106L48.8357 59.3487C48.0764 58.2368 47.1916 56.3885 47.0906 54.4159C47.039 53.4075 47.1908 52.3205 47.7178 51.2913C48.2505 50.2506 49.1197 49.3621 50.3493 48.6946C52.8059 47.361 54.5197 46.6687 56.1729 46.8213C57.0108 46.8986 57.7277 47.1815 58.3996 47.5162C58.7806 47.706 59.2248 47.9551 59.688 48.2149C59.9723 48.3743 60.2638 48.5378 60.5522 48.694C62.2366 49.6063 77.4714 57.6304 92.5777 65.4666C100.129 69.3835 107.64 73.2494 113.402 76.1527C116.284 77.6049 118.722 78.8125 120.505 79.6642C121.399 80.0908 122.116 80.4227 122.639 80.6499C122.868 80.7493 123.048 80.824 123.184 80.8764C123.386 80.8077 123.678 80.6888 124.069 80.5107C124.845 80.1566 125.898 79.6193 127.176 78.9295C129.727 77.5533 133.091 75.6169 136.764 73.445C144.105 69.1038 152.625 63.8543 158.232 60.3443L158.277 60.3159L158.325 60.2907C159.61 59.6086 161.711 58.8 163.937 58.5608C166.145 58.3234 168.77 58.6244 170.701 60.5551C173.139 62.9928 172.839 66.0914 172.003 68.3602C171.579 69.5104 170.991 70.5424 170.435 71.3449C169.917 72.0925 169.346 72.7553 168.878 73.1181C168.878 73.118 168.878 73.118 168.878 73.118C168.879 73.1189 168.831 73.1633 168.711 73.2901C168.569 73.4408 168.376 73.6536 168.133 73.927C167.649 74.4723 166.993 75.2304 166.202 76.1556C164.622 78.0044 162.523 80.4986 160.228 83.2436C155.719 88.6379 150.464 94.9873 146.927 99.2771C146.798 99.8727 146.662 101.828 148.076 104.843C149.752 108.42 173.067 152.281 184.548 173.826L184.627 173.974L184.671 174.136C185.046 175.513 185.46 177.655 185.456 179.624C185.454 180.603 185.35 181.642 185.019 182.549C184.684 183.468 184.05 184.413 182.909 184.847C181.014 185.569 178.4 185.465 175.896 184.849C173.346 184.221 170.647 182.998 168.526 181.191C167.11 179.986 164.529 177.347 161.749 174.507C161.395 174.145 161.038 173.78 160.68 173.415C157.982 170.661 155.186 167.835 153.001 165.842C153.019 166.057 153.028 166.278 153.028 166.505C153.028 171.029 154.552 203.077 155.317 218.593L155.318 218.614L155.319 218.635C155.342 219.742 154.912 221.238 153.693 222.477C152.446 223.743 150.497 224.62 147.694 224.702C142.654 224.848 116.209 224.763 103.649 224.702C103.648 224.702 103.647 224.702 103.646 224.702L103.653 223.202C101.99 223.202 98.7363 222.368 99.0266 219.029C99.1768 217.303 99.204 215.987 99.1785 215.052L38.1035 140.074ZM38.1035 140.074L37.3363 140.574L17.4696 153.547L16.3481 154.279L16.9493 155.476L36.816 195.028L37.5446 196.479L38.9333 195.638L52.2685 187.564L52.6454 187.336L52.8391 186.94L56.8223 178.797C56.907 178.71 56.9977 178.622 57.0886 178.539C57.2662 178.683 57.4545 178.811 57.6349 178.925C58.1076 179.222 58.6715 179.503 59.186 179.745C59.4482 179.869 59.711 179.989 59.955 180.1C60.2026 180.213 60.4277 180.316 60.6305 180.412C60.8241 180.503 60.9791 180.58 61.0973 180.643C61.1996 180.832 61.3441 181.113 61.5297 181.485C61.8993 182.224 62.41 183.279 63.031 184.581C64.272 187.182 65.9404 190.743 67.7734 194.686C71.4388 202.569 75.7555 211.959 78.6124 218.202L79.0132 219.078H79.9763H91.8601H92.265L92.6149 218.874L97.686 215.921L38.1035 140.074ZM130.772 148.729L143.653 158.562H106.19L130.772 148.729ZM97.7049 161.956L100.667 160.771C99.9179 161.677 99.5677 162.69 99.49 163.48L99.4828 163.553V163.627V165.835L97.7049 161.956ZM123.013 80.9273C123.001 80.9299 123.003 80.9287 123.017 80.9265C123.016 80.9268 123.015 80.9271 123.013 80.9273Z" stroke="white" stroke-width="3"/>
</svg>
